<svg width="23" height="21" viewBox="0 0 23 21" fill="none" xmlns="http://www.w3.org/2000/svg">
<path d="M9.21397 20.3517C8.56542 20.3517 7.94343 20.0941 7.48484 19.6355C7.02624 19.1769 6.76861 18.5549 6.76861 17.9064C6.76861 17.2578 7.02624 16.6358 7.48484 16.1772C7.94343 15.7186 8.56542 15.461 9.21397 15.461C9.86252 15.461 10.4845 15.7186 10.9431 16.1772C11.4017 16.6358 11.6593 17.2578 11.6593 17.9064C11.6593 18.5549 11.4017 19.1769 10.9431 19.6355C10.4845 20.0941 9.86252 20.3517 9.21397 20.3517ZM17.7727 20.3517C17.1242 20.3517 16.5022 20.0941 16.0436 19.6355C15.585 19.1769 15.3274 18.5549 15.3274 17.9064C15.3274 17.2578 15.585 16.6358 16.0436 16.1772C16.5022 15.7186 17.1242 15.461 17.7727 15.461C18.4213 15.461 19.0433 15.7186 19.5019 16.1772C19.9605 16.6358 20.2181 17.2578 20.2181 17.9064C20.2181 18.5549 19.9605 19.1769 19.5019 19.6355C19.0433 20.0941 18.4213 20.3517 17.7727 20.3517ZM1.83142 3.14004C1.52619 3.13019 1.23675 3.00202 1.02432 2.78262C0.81189 2.56323 0.693115 2.26981 0.693115 1.96443C0.693115 1.65904 0.81189 1.36562 1.02432 1.14623C1.23675 0.926835 1.52619 0.798663 1.83142 0.788818L3.23872 0.788818C4.34158 0.788818 5.29528 1.55422 5.53492 2.63018L7.06694 9.52855C7.30659 10.6045 8.26028 11.3699 9.36314 11.3699H18.5479L20.311 4.31503H8.88507C8.58271 4.30124 8.29731 4.17142 8.08823 3.95257C7.87914 3.73373 7.76247 3.44271 7.76247 3.14004C7.76247 2.83737 7.87914 2.54634 8.08823 2.3275C8.29731 2.10866 8.58271 1.97884 8.88507 1.96504H20.311C20.6685 1.96493 21.0212 2.04632 21.3425 2.20301C21.6637 2.35971 21.945 2.58758 22.165 2.86931C22.385 3.15105 22.5378 3.47922 22.6119 3.82889C22.686 4.17856 22.6794 4.54052 22.5926 4.88725L20.8294 11.9397C20.7023 12.4486 20.4087 12.9003 19.9953 13.2231C19.5819 13.5459 19.0724 13.7212 18.5479 13.7211H9.36314C8.29304 13.7213 7.2549 13.3564 6.42016 12.6869C5.58542 12.0173 5.00402 11.083 4.77197 10.0384L3.23872 3.14004H1.83142Z" fill="#181725"/>
</svg>
