<svg width="29" height="19" viewBox="0 0 29 19" fill="none" xmlns="http://www.w3.org/2000/svg">
<path d="M18.5529 14.0713C19.3408 14.0713 20.121 13.9161 20.849 13.6146C21.5769 13.3131 22.2384 12.8711 22.7955 12.3139C23.3527 11.7568 23.7946 11.0954 24.0961 10.3674C24.3977 9.63945 24.5529 8.85924 24.5529 8.0713C24.5529 7.28337 24.3977 6.50316 24.0961 5.7752C23.7946 5.04725 23.3527 4.38581 22.7955 3.82866C22.2384 3.27151 21.5769 2.82956 20.849 2.52803C20.121 2.2265 19.3408 2.0713 18.5529 2.0713C16.9616 2.0713 15.4354 2.70344 14.3102 3.82866C13.185 4.95388 12.5529 6.48001 12.5529 8.0713C12.5529 9.6626 13.185 11.1887 14.3102 12.3139C15.4354 13.4392 16.9616 14.0713 18.5529 14.0713ZM24.8729 12.9773L28.4529 16.5573C28.5483 16.6496 28.6244 16.76 28.6767 16.8821C28.7291 17.0041 28.7565 17.1353 28.7576 17.2681C28.7587 17.4009 28.7333 17.5326 28.6829 17.6554C28.6325 17.7783 28.5582 17.8899 28.4642 17.9837C28.3703 18.0775 28.2586 18.1517 28.1357 18.2019C28.0127 18.2521 27.881 18.2773 27.7483 18.276C27.6155 18.2748 27.4843 18.2471 27.3623 18.1946C27.2403 18.1421 27.1301 18.0659 27.0379 17.9703L23.4579 14.3903C21.8503 15.6382 19.8277 16.2265 17.8016 16.0355C15.7756 15.8445 13.8985 14.8886 12.5524 13.3624C11.2064 11.8361 10.4926 9.85425 10.5563 7.82023C10.62 5.78621 11.4565 3.85293 12.8955 2.41395C14.3345 0.974973 16.2678 0.138471 18.3018 0.0747298C20.3358 0.0109887 22.3177 0.724801 23.8439 2.07085C25.3702 3.41691 26.3261 5.29402 26.5171 7.32006C26.708 9.3461 26.1197 11.3688 24.8719 12.9763L24.8729 12.9773Z" fill="#181725"/>
<rect x="0.408325" y="0.0708008" width="8.85499" height="2.39923" rx="1.19961" fill="#181725"/>
<rect x="0.408325" y="7.50903" width="6.46414" height="2.39923" rx="1.19961" fill="#181725"/>
<rect x="0.408325" y="14.9475" width="8.85499" height="2.39923" rx="1.19961" fill="#181725"/>
</svg>
