<svg width="25" height="25" viewBox="0 0 25 25" fill="none" xmlns="http://www.w3.org/2000/svg">
<g clip-path="url(#clip0_1_1377)">
<path d="M4.96718 11.8434L12.7913 19.6675L20.6154 11.8434C21.3071 11.1517 21.6957 10.2135 21.6957 9.23519C21.6957 8.25691 21.3071 7.3187 20.6154 6.62696C20.2729 6.28444 19.8662 6.01274 19.4187 5.82737C18.9712 5.642 18.4915 5.54659 18.0071 5.54659C17.0289 5.54659 16.0906 5.93521 15.3989 6.62696L12.7913 9.23458L10.1837 6.62818C9.49014 5.94572 8.55505 5.56494 7.58207 5.56878C6.60908 5.57263 5.67703 5.96079 4.98894 6.64872C4.30085 7.33665 3.91247 8.26861 3.90839 9.2416C3.90431 10.2146 4.28487 11.1498 4.96718 11.8434ZM11.9221 4.88731L12.7913 5.75652L13.6605 4.88731C14.2304 4.31239 14.9082 3.8557 15.6551 3.54345C16.402 3.23121 17.2032 3.06956 18.0127 3.06779C18.8222 3.06601 19.6241 3.22415 20.3724 3.53312C21.1206 3.8421 21.8005 4.29581 22.3729 4.86823C22.9453 5.44065 23.399 6.12049 23.708 6.86873C24.017 7.61697 24.1751 8.41887 24.1733 9.22839C24.1715 10.0379 24.0099 10.8391 23.6976 11.586C23.3854 12.3329 22.9287 13.0107 22.3538 13.5806L13.6617 22.2739C13.5475 22.3882 13.4119 22.4789 13.2627 22.5408C13.1134 22.6027 12.9535 22.6345 12.7919 22.6345C12.6303 22.6345 12.4703 22.6027 12.3211 22.5408C12.1718 22.4789 12.0363 22.3882 11.9221 22.2739L3.22876 13.5818C2.64602 13.0138 2.18188 12.3356 1.86327 11.5868C1.54465 10.838 1.3779 10.0333 1.37268 9.2195C1.36747 8.4057 1.5239 7.59897 1.83289 6.84611C2.14189 6.09324 2.5973 5.40922 3.17271 4.83373C3.74812 4.25823 4.43208 3.80273 5.1849 3.49362C5.93773 3.18452 6.74443 3.02798 7.55823 3.03308C8.37203 3.03818 9.17671 3.20482 9.9256 3.52333C10.6745 3.84184 11.3527 4.30588 11.9208 4.88854L11.9221 4.88731Z" fill="#181725"/>
</g>
<defs>
<clipPath id="clip0_1_1377">
<rect width="24" height="24" fill="white" transform="translate(0.272949 0.83374)"/>
</clipPath>
</defs>
</svg>
