<svg width="19" height="19" viewBox="0 0 19 19" fill="none" xmlns="http://www.w3.org/2000/svg">
<path d="M8.55287 14.0713C9.3408 14.0713 10.121 13.9161 10.849 13.6146C11.5769 13.3131 12.2384 12.8711 12.7955 12.3139C13.3527 11.7568 13.7946 11.0954 14.0961 10.3674C14.3977 9.63945 14.5529 8.85924 14.5529 8.0713C14.5529 7.28337 14.3977 6.50316 14.0961 5.7752C13.7946 5.04725 13.3527 4.38581 12.7955 3.82866C12.2384 3.27151 11.5769 2.82956 10.849 2.52803C10.121 2.2265 9.3408 2.0713 8.55287 2.0713C6.96157 2.0713 5.43545 2.70345 4.31023 3.82866C3.18501 4.95388 2.55287 6.48001 2.55287 8.0713C2.55287 9.6626 3.18501 11.1887 4.31023 12.3139C5.43545 13.4392 6.96157 14.0713 8.55287 14.0713ZM14.8729 12.9773L18.4529 16.5573C18.5483 16.6496 18.6244 16.76 18.6767 16.8821C18.7291 17.0041 18.7565 17.1353 18.7576 17.2681C18.7587 17.4009 18.7333 17.5326 18.6829 17.6554C18.6325 17.7783 18.5582 17.8899 18.4642 17.9837C18.3703 18.0775 18.2586 18.1517 18.1357 18.2019C18.0127 18.2521 17.881 18.2773 17.7483 18.276C17.6155 18.2748 17.4843 18.2471 17.3623 18.1946C17.2403 18.1421 17.1301 18.0659 17.0379 17.9703L13.4579 14.3903C11.8503 15.6382 9.82767 16.2265 7.80163 16.0355C5.77559 15.8445 3.89848 14.8886 2.55242 13.3624C1.20637 11.8361 0.492556 9.85425 0.556297 7.82023C0.620038 5.78621 1.45654 3.85293 2.89552 2.41395C4.33449 0.974973 6.26777 0.138471 8.3018 0.0747298C10.3358 0.0109887 12.3177 0.724801 13.8439 2.07085C15.3702 3.41691 16.3261 5.29402 16.5171 7.32006C16.708 9.3461 16.1197 11.3688 14.8719 12.9763L14.8729 12.9773Z" fill="#181725"/>
</svg>
